<svg width="87" height="24" viewBox="0 0 87 24" fill="none" xmlns="http://www.w3.org/2000/svg">
<g clip-path="url(#clip0_2108_40)">
<path d="M3.34216 7.79383C2.92914 7.79383 2.57871 7.93786 2.29065 8.22592C2.00259 8.51398 1.85852 8.85964 1.85852 9.26308V15.4574C1.85852 15.871 2.00255 16.2211 2.29065 16.5092C2.57871 16.7973 2.92914 16.9413 3.34216 16.9413C3.75487 16.9413 4.10318 16.7973 4.38677 16.5092C4.6698 16.2211 4.81171 15.871 4.81171 15.4574V9.26308C4.81171 8.8596 4.66768 8.51398 4.37958 8.22592C4.09148 7.93786 3.7456 7.79383 3.34216 7.79383ZM15.2701 2.23316L16.2929 0.346343C16.3601 0.221428 16.3362 0.125639 16.2211 0.0582839C16.0961 0.000203958 16.0001 0.029634 15.933 0.144494L14.8959 2.04639C13.9833 1.64291 13.0181 1.4408 12.0003 1.4408C10.9822 1.4408 10.0169 1.64295 9.10468 2.04639L8.06752 0.144494C8.00012 0.029634 7.90412 0.00046402 7.77946 0.0582839C7.66408 0.125943 7.6402 0.221428 7.7076 0.346343L8.73046 2.23316C7.6933 2.76208 6.86726 3.49869 6.25265 4.44462C5.63805 5.39106 5.33061 6.42531 5.33061 7.5492H18.6554C18.6554 6.42557 18.348 5.39128 17.7334 4.44462C17.1188 3.49869 16.2975 2.76208 15.2701 2.23316ZM9.35668 4.97756C9.24607 5.08844 9.11396 5.14361 8.96039 5.14361C8.80652 5.14361 8.6771 5.08844 8.57152 4.97756C8.46593 4.86721 8.41314 4.73562 8.41314 4.58154C8.41314 4.42797 8.46593 4.29612 8.57152 4.18551C8.6771 4.07516 8.80683 4.01998 8.96039 4.01998C9.11396 4.01998 9.24607 4.07516 9.35668 4.18551C9.46703 4.29638 9.52247 4.42797 9.52247 4.58154C9.52216 4.73536 9.46677 4.86721 9.35668 4.97756ZM15.4285 4.97756C15.3227 5.08844 15.1929 5.14361 15.0396 5.14361C14.8857 5.14361 14.7536 5.08844 14.6432 4.97756C14.5327 4.86721 14.4775 4.73562 14.4775 4.58154C14.4775 4.42797 14.5327 4.29612 14.6432 4.18551C14.7536 4.07516 14.8857 4.01998 15.0396 4.01998C15.1932 4.01998 15.3226 4.07516 15.4285 4.18551C15.5341 4.29638 15.5868 4.42797 15.5868 4.58154C15.5868 4.73536 15.5341 4.86721 15.4285 4.97756ZM5.38783 17.6615C5.38783 18.1037 5.54139 18.478 5.84857 18.7852C6.156 19.0923 6.53031 19.2459 6.9722 19.2459H8.03826L8.05287 22.5163C8.05287 22.9293 8.1969 23.28 8.48496 23.5681C8.77302 23.8562 9.11894 24.0002 9.52212 24.0002C9.93488 24.0002 10.2855 23.8562 10.5736 23.5681C10.8617 23.28 11.0058 22.9293 11.0058 22.5163V19.2462H12.9937V22.5163C12.9937 22.9293 13.1376 23.28 13.4257 23.5681C13.7138 23.8562 14.0642 24.0002 14.4772 24.0002C14.89 24.0002 15.2406 23.8562 15.5288 23.5681C15.8169 23.28 15.9608 22.9293 15.9608 22.5163V19.2462H17.0413C17.4734 19.2462 17.8429 19.0926 18.1506 18.7854C18.4578 18.4782 18.6114 18.1039 18.6114 17.6618V8.06728H5.38783V17.6615ZM20.6578 7.79383C20.2543 7.79383 19.9087 7.93574 19.6206 8.21877C19.3326 8.50232 19.1885 8.85063 19.1885 9.26308V15.4574C19.1885 15.871 19.3325 16.2211 19.6206 16.5092C19.9087 16.7973 20.2546 16.9413 20.6578 16.9413C21.0706 16.9413 21.4212 16.7973 21.7093 16.5092C21.9974 16.2211 22.1414 15.871 22.1414 15.4574V9.26308C22.1414 8.85058 21.9974 8.50232 21.7093 8.21877C21.4212 7.93574 21.0706 7.79383 20.6578 7.79383Z" fill="white"/>
</g>
<path d="M32.09 17.5L36.8 6.85H37.955L42.68 17.5H41.225L39.845 14.395H34.88L33.53 17.5H32.09ZM37.355 8.74L35.435 13.135H39.29L37.355 8.74ZM43.6816 17.5V10H44.9716V11.155C45.4816 10.285 46.2766 9.85 47.3566 9.85C48.2066 9.85 48.8916 10.125 49.4116 10.675C49.9316 11.225 50.1916 11.96 50.1916 12.88V17.5H48.9166V13.075C48.9166 12.445 48.7566 11.95 48.4366 11.59C48.1166 11.22 47.6866 11.035 47.1466 11.035C46.5266 11.035 46.0066 11.28 45.5866 11.77C45.1766 12.26 44.9716 12.93 44.9716 13.78V17.5H43.6816ZM55.3046 17.65C54.2646 17.65 53.3896 17.27 52.6796 16.51C51.9796 15.75 51.6296 14.83 51.6296 13.75C51.6296 12.67 51.9796 11.75 52.6796 10.99C53.3896 10.23 54.2646 9.85 55.3046 9.85C55.8546 9.85 56.3646 9.975 56.8346 10.225C57.3146 10.465 57.6846 10.775 57.9446 11.155V6.25H59.2346V17.5H57.9446V16.345C57.6846 16.725 57.3146 17.04 56.8346 17.29C56.3646 17.53 55.8546 17.65 55.3046 17.65ZM55.4996 16.465C56.2396 16.465 56.8496 16.205 57.3296 15.685C57.8096 15.165 58.0496 14.52 58.0496 13.75C58.0496 12.98 57.8096 12.335 57.3296 11.815C56.8496 11.295 56.2396 11.035 55.4996 11.035C54.7496 11.035 54.1346 11.295 53.6546 11.815C53.1746 12.335 52.9346 12.98 52.9346 13.75C52.9346 14.52 53.1746 15.165 53.6546 15.685C54.1346 16.205 54.7496 16.465 55.4996 16.465ZM61.3629 17.5V10H62.6529V11.455C62.7929 10.995 63.0629 10.625 63.4629 10.345C63.8729 10.065 64.3029 9.925 64.7529 9.925C64.9729 9.925 65.1679 9.945 65.3379 9.985V11.32C65.1579 11.24 64.9229 11.2 64.6329 11.2C64.1129 11.2 63.6529 11.425 63.2529 11.875C62.8529 12.325 62.6529 12.96 62.6529 13.78V17.5H61.3629ZM69.6223 17.65C68.4923 17.65 67.5523 17.275 66.8023 16.525C66.0623 15.765 65.6923 14.84 65.6923 13.75C65.6923 12.66 66.0623 11.74 66.8023 10.99C67.5523 10.23 68.4923 9.85 69.6223 9.85C70.7423 9.85 71.6723 10.23 72.4123 10.99C73.1623 11.74 73.5373 12.66 73.5373 13.75C73.5373 14.84 73.1623 15.765 72.4123 16.525C71.6723 17.275 70.7423 17.65 69.6223 17.65ZM67.7323 15.67C68.2223 16.19 68.8523 16.45 69.6223 16.45C70.3923 16.45 71.0173 16.19 71.4973 15.67C71.9773 15.15 72.2173 14.51 72.2173 13.75C72.2173 12.99 71.9773 12.35 71.4973 11.83C71.0173 11.31 70.3923 11.05 69.6223 11.05C68.8523 11.05 68.2223 11.31 67.7323 11.83C67.2523 12.35 67.0123 12.99 67.0123 13.75C67.0123 14.51 67.2523 15.15 67.7323 15.67ZM76.394 7.735C76.224 7.905 76.009 7.99 75.749 7.99C75.489 7.99 75.269 7.905 75.089 7.735C74.909 7.555 74.819 7.335 74.819 7.075C74.819 6.825 74.909 6.61 75.089 6.43C75.269 6.25 75.489 6.16 75.749 6.16C76.009 6.16 76.224 6.25 76.394 6.43C76.564 6.61 76.649 6.825 76.649 7.075C76.649 7.335 76.564 7.555 76.394 7.735ZM75.089 17.5V10H76.379V17.5H75.089ZM81.6144 17.65C80.5744 17.65 79.6994 17.27 78.9894 16.51C78.2894 15.75 77.9394 14.83 77.9394 13.75C77.9394 12.67 78.2894 11.75 78.9894 10.99C79.6994 10.23 80.5744 9.85 81.6144 9.85C82.1644 9.85 82.6744 9.975 83.1444 10.225C83.6244 10.465 83.9944 10.775 84.2544 11.155V6.25H85.5444V17.5H84.2544V16.345C83.9944 16.725 83.6244 17.04 83.1444 17.29C82.6744 17.53 82.1644 17.65 81.6144 17.65ZM81.8094 16.465C82.5494 16.465 83.1594 16.205 83.6394 15.685C84.1194 15.165 84.3594 14.52 84.3594 13.75C84.3594 12.98 84.1194 12.335 83.6394 11.815C83.1594 11.295 82.5494 11.035 81.8094 11.035C81.0594 11.035 80.4444 11.295 79.9644 11.815C79.4844 12.335 79.2444 12.98 79.2444 13.75C79.2444 14.52 79.4844 15.165 79.9644 15.685C80.4444 16.205 81.0594 16.465 81.8094 16.465Z" fill="white"/>
<defs>
<clipPath id="clip0_2108_40">
<rect width="24" height="24" fill="white"/>
</clipPath>
</defs>
</svg>
