<svg width="56" height="24" viewBox="0 0 56 24" fill="none" xmlns="http://www.w3.org/2000/svg">
<path d="M19.0577 12.64C19.0465 10.7965 19.9726 9.40503 21.8472 8.38029C20.7984 7.02904 19.2139 6.2856 17.1217 6.13993C15.1411 5.99928 12.9764 7.17974 12.1841 7.17974C11.3472 7.17974 9.428 6.19016 7.92163 6.19016C4.80845 6.23537 1.5 8.4255 1.5 12.8811C1.5 14.1972 1.7678 15.5568 2.3034 16.96C3.01753 18.8035 5.59511 23.3244 8.28427 23.2491C9.69022 23.2189 10.6833 22.3499 12.5133 22.3499C14.2875 22.3499 15.208 23.2491 16.7758 23.2491C19.4872 23.2139 21.8193 19.1049 22.5 17.2563C18.8624 15.7142 19.0577 12.7354 19.0577 12.64ZM15.8998 4.39185C17.423 2.76432 17.2835 1.28246 17.2388 0.75C15.8943 0.820325 14.3377 1.57381 13.4506 2.50311C12.4742 3.49771 11.8996 4.7284 12.0223 6.11482C13.4785 6.21528 14.8063 5.54217 15.8998 4.39185Z" fill="white"/>
<path d="M34.52 7.735C34.35 7.905 34.135 7.99 33.875 7.99C33.615 7.99 33.395 7.905 33.215 7.735C33.035 7.555 32.945 7.335 32.945 7.075C32.945 6.825 33.035 6.61 33.215 6.43C33.395 6.25 33.615 6.16 33.875 6.16C34.135 6.16 34.35 6.25 34.52 6.43C34.69 6.61 34.775 6.825 34.775 7.075C34.775 7.335 34.69 7.555 34.52 7.735ZM33.215 17.5V10H34.505V17.5H33.215ZM41.6154 16.36C42.7854 16.36 43.7604 15.955 44.5404 15.145C45.3304 14.335 45.7254 13.345 45.7254 12.175C45.7254 11.005 45.3304 10.015 44.5404 9.205C43.7604 8.395 42.7854 7.99 41.6154 7.99C40.4554 7.99 39.4804 8.395 38.6904 9.205C37.9104 10.015 37.5204 11.005 37.5204 12.175C37.5204 13.345 37.9104 14.335 38.6904 15.145C39.4804 15.955 40.4554 16.36 41.6154 16.36ZM41.6154 17.68C40.0854 17.68 38.7854 17.15 37.7154 16.09C36.6454 15.02 36.1104 13.715 36.1104 12.175C36.1104 10.635 36.6454 9.335 37.7154 8.275C38.7854 7.205 40.0854 6.67 41.6154 6.67C43.1554 6.67 44.4554 7.205 45.5154 8.275C46.5854 9.335 47.1204 10.635 47.1204 12.175C47.1204 13.715 46.5854 15.02 45.5154 16.09C44.4554 17.15 43.1554 17.68 41.6154 17.68ZM51.8633 17.68C50.7833 17.68 49.8983 17.385 49.2083 16.795C48.5283 16.205 48.1783 15.49 48.1583 14.65H49.5533C49.6133 15.2 49.8683 15.625 50.3183 15.925C50.7783 16.225 51.2883 16.375 51.8483 16.375C52.4283 16.375 52.9083 16.23 53.2883 15.94C53.6683 15.65 53.8583 15.265 53.8583 14.785C53.8583 13.975 53.3533 13.38 52.3433 13L50.8733 12.46C50.0333 12.17 49.4133 11.785 49.0133 11.305C48.6233 10.825 48.4233 10.21 48.4133 9.46C48.4133 8.61 48.7133 7.935 49.3133 7.435C49.9233 6.925 50.7033 6.67 51.6533 6.67C52.6533 6.67 53.4433 6.96 54.0233 7.54C54.6133 8.11 54.9433 8.78 55.0133 9.55H53.6333C53.5033 9.02 53.2533 8.625 52.8833 8.365C52.5233 8.105 52.1033 7.975 51.6233 7.975C51.1033 7.975 50.6683 8.105 50.3183 8.365C49.9783 8.625 49.8083 8.975 49.8083 9.415C49.8083 9.855 49.9283 10.205 50.1683 10.465C50.4083 10.725 50.7983 10.95 51.3383 11.14L52.7033 11.635C53.5433 11.935 54.1783 12.335 54.6083 12.835C55.0383 13.325 55.2533 13.96 55.2533 14.74C55.2533 15.63 54.9383 16.345 54.3083 16.885C53.6783 17.415 52.8633 17.68 51.8633 17.68Z" fill="white"/>
</svg>
